<?xml version="1.0" encoding="UTF-8" standalone="no"?>
<!DOCTYPE svg PUBLIC "-//W3C//DTD SVG 1.1//EN"
 "http://www.w3.org/Graphics/SVG/1.1/DTD/svg11.dtd">
<!-- Generated by graphviz version 2.43.0 (0)
 -->
<!-- Title: %3 Pages: 1 -->
<svg width="2041pt" height="404pt"
 viewBox="0.00 0.00 2040.93 404.00" xmlns="http://www.w3.org/2000/svg" xmlns:xlink="http://www.w3.org/1999/xlink">
<g id="graph0" class="graph" transform="scale(1 1) rotate(0) translate(4 400)">
<title>%3</title>
<polygon fill="white" stroke="transparent" points="-4,4 -4,-400 2036.93,-400 2036.93,4 -4,4"/>
<!-- [root] data.template_file.chef_setup (expand) -->
<g id="node1" class="node">
<title>[root] data.template_file.chef_setup (expand)</title>
<polygon fill="none" stroke="black" points="980,-180 754,-180 754,-144 980,-144 980,-180"/>
<text text-anchor="middle" x="867" y="-158.3" font-family="Times,serif" font-size="14.00">data.template_file.chef_setup</text>
</g>
<!-- [root] google_compute_network.network (expand) -->
<g id="node4" class="node">
<title>[root] google_compute_network.network (expand)</title>
<polygon fill="none" stroke="black" points="1780,-108 1520,-108 1520,-72 1780,-72 1780,-108"/>
<text text-anchor="middle" x="1650" y="-86.3" font-family="Times,serif" font-size="14.00">google_compute_network.network</text>
</g>
<!-- [root] data.template_file.chef_setup (expand)&#45;&gt;[root] google_compute_network.network (expand) -->
<g id="edge1" class="edge">
<title>[root] data.template_file.chef_setup (expand)&#45;&gt;[root] google_compute_network.network (expand)</title>
<path fill="none" stroke="black" d="M980.15,-148.53C995.88,-146.93 1011.84,-145.37 1027,-144 1238.58,-124.9 1294.64,-128.97 1509.77,-108.09"/>
<polygon fill="black" stroke="black" points="1510.19,-111.57 1519.8,-107.11 1509.51,-104.6 1510.19,-111.57"/>
</g>
<!-- [root] provider[&quot;registry.terraform.io/hashicorp/template&quot;] -->
<g id="node10" class="node">
<title>[root] provider[&quot;registry.terraform.io/hashicorp/template&quot;]</title>
<polygon fill="none" stroke="black" points="452,-108 93.56,-90 452,-72 810.44,-90 452,-108"/>
<text text-anchor="middle" x="452" y="-86.3" font-family="Times,serif" font-size="14.00">provider[&quot;registry.terraform.io/hashicorp/template&quot;]</text>
</g>
<!-- [root] data.template_file.chef_setup (expand)&#45;&gt;[root] provider[&quot;registry.terraform.io/hashicorp/template&quot;] -->
<g id="edge2" class="edge">
<title>[root] data.template_file.chef_setup (expand)&#45;&gt;[root] provider[&quot;registry.terraform.io/hashicorp/template&quot;]</title>
<path fill="none" stroke="black" d="M766.01,-143.97C696.86,-132.3 606.07,-116.99 539.9,-105.83"/>
<polygon fill="black" stroke="black" points="540.36,-102.35 529.91,-104.14 539.19,-109.26 540.36,-102.35"/>
</g>
<!-- [root] var.machine_type -->
<g id="node13" class="node">
<title>[root] var.machine_type</title>
<polygon fill="none" stroke="black" points="963.5,-108 828.5,-108 828.5,-72 969.5,-72 969.5,-102 963.5,-108"/>
<polyline fill="none" stroke="black" points="963.5,-108 963.5,-102 "/>
<polyline fill="none" stroke="black" points="969.5,-102 963.5,-102 "/>
<text text-anchor="middle" x="899" y="-86.3" font-family="Times,serif" font-size="14.00">var.machine_type</text>
</g>
<!-- [root] data.template_file.chef_setup (expand)&#45;&gt;[root] var.machine_type -->
<g id="edge3" class="edge">
<title>[root] data.template_file.chef_setup (expand)&#45;&gt;[root] var.machine_type</title>
<path fill="none" stroke="black" d="M874.91,-143.7C878.55,-135.73 882.95,-126.1 886.99,-117.26"/>
<polygon fill="black" stroke="black" points="890.21,-118.65 891.18,-108.1 883.84,-115.74 890.21,-118.65"/>
</g>
<!-- [root] var.region -->
<g id="node16" class="node">
<title>[root] var.region</title>
<polygon fill="none" stroke="black" points="1345.5,-108 1262.5,-108 1262.5,-72 1351.5,-72 1351.5,-102 1345.5,-108"/>
<polyline fill="none" stroke="black" points="1345.5,-108 1345.5,-102 "/>
<polyline fill="none" stroke="black" points="1351.5,-102 1345.5,-102 "/>
<text text-anchor="middle" x="1307" y="-86.3" font-family="Times,serif" font-size="14.00">var.region</text>
</g>
<!-- [root] data.template_file.chef_setup (expand)&#45;&gt;[root] var.region -->
<g id="edge4" class="edge">
<title>[root] data.template_file.chef_setup (expand)&#45;&gt;[root] var.region</title>
<path fill="none" stroke="black" d="M980.43,-147.69C1070.46,-136.73 1190.08,-121.21 1252.46,-108.1"/>
<polygon fill="black" stroke="black" points="1253.32,-111.49 1262.33,-105.93 1251.81,-104.66 1253.32,-111.49"/>
</g>
<!-- [root] var.zone -->
<g id="node18" class="node">
<title>[root] var.zone</title>
<polygon fill="none" stroke="black" points="70,-108 0,-108 0,-72 76,-72 76,-102 70,-108"/>
<polyline fill="none" stroke="black" points="70,-108 70,-102 "/>
<polyline fill="none" stroke="black" points="76,-102 70,-102 "/>
<text text-anchor="middle" x="38" y="-86.3" font-family="Times,serif" font-size="14.00">var.zone</text>
</g>
<!-- [root] data.template_file.chef_setup (expand)&#45;&gt;[root] var.zone -->
<g id="edge5" class="edge">
<title>[root] data.template_file.chef_setup (expand)&#45;&gt;[root] var.zone</title>
<path fill="none" stroke="black" d="M753.96,-157.22C573.42,-150.55 226.87,-134.96 86.37,-107.87"/>
<polygon fill="black" stroke="black" points="86.72,-104.36 76.22,-105.81 85.33,-111.22 86.72,-104.36"/>
</g>
<!-- [root] google_compute_firewall.iap&#45;tunnel (expand) -->
<g id="node2" class="node">
<title>[root] google_compute_firewall.iap&#45;tunnel (expand)</title>
<polygon fill="none" stroke="black" points="1944.5,-252 1675.5,-252 1675.5,-216 1944.5,-216 1944.5,-252"/>
<text text-anchor="middle" x="1810" y="-230.3" font-family="Times,serif" font-size="14.00">google_compute_firewall.iap&#45;tunnel</text>
</g>
<!-- [root] google_compute_firewall.iap&#45;tunnel (expand)&#45;&gt;[root] google_compute_network.network (expand) -->
<g id="edge6" class="edge">
<title>[root] google_compute_firewall.iap&#45;tunnel (expand)&#45;&gt;[root] google_compute_network.network (expand)</title>
<path fill="none" stroke="black" d="M1814.75,-215.72C1818.99,-196.28 1822.41,-164.72 1807,-144 1796.67,-130.11 1782.51,-119.82 1766.91,-112.2"/>
<polygon fill="black" stroke="black" points="1768.13,-108.91 1757.57,-108.02 1765.27,-115.3 1768.13,-108.91"/>
</g>
<!-- [root] google_compute_instance.chef_Workstation (expand) -->
<g id="node3" class="node">
<title>[root] google_compute_instance.chef_Workstation (expand)</title>
<polygon fill="none" stroke="black" points="1348,-252 1022,-252 1022,-216 1348,-216 1348,-252"/>
<text text-anchor="middle" x="1185" y="-230.3" font-family="Times,serif" font-size="14.00">google_compute_instance.chef_Workstation</text>
</g>
<!-- [root] google_compute_instance.chef_Workstation (expand)&#45;&gt;[root] data.template_file.chef_setup (expand) -->
<g id="edge7" class="edge">
<title>[root] google_compute_instance.chef_Workstation (expand)&#45;&gt;[root] data.template_file.chef_setup (expand)</title>
<path fill="none" stroke="black" d="M1107.62,-215.97C1061.36,-205.78 1002.46,-192.82 954.51,-182.26"/>
<polygon fill="black" stroke="black" points="954.97,-178.78 944.46,-180.05 953.47,-185.62 954.97,-178.78"/>
</g>
<!-- [root] google_compute_subnetwork.subnetwork (expand) -->
<g id="node7" class="node">
<title>[root] google_compute_subnetwork.subnetwork (expand)</title>
<polygon fill="none" stroke="black" points="1547.5,-180 1236.5,-180 1236.5,-144 1547.5,-144 1547.5,-180"/>
<text text-anchor="middle" x="1392" y="-158.3" font-family="Times,serif" font-size="14.00">google_compute_subnetwork.subnetwork</text>
</g>
<!-- [root] google_compute_instance.chef_Workstation (expand)&#45;&gt;[root] google_compute_subnetwork.subnetwork (expand) -->
<g id="edge8" class="edge">
<title>[root] google_compute_instance.chef_Workstation (expand)&#45;&gt;[root] google_compute_subnetwork.subnetwork (expand)</title>
<path fill="none" stroke="black" d="M1235.37,-215.97C1264.42,-206.14 1301.13,-193.73 1331.71,-183.39"/>
<polygon fill="black" stroke="black" points="1333.05,-186.63 1341.4,-180.11 1330.81,-180 1333.05,-186.63"/>
</g>
<!-- [root] google_service_account.head&#45;chef (expand) -->
<g id="node8" class="node">
<title>[root] google_service_account.head&#45;chef (expand)</title>
<polygon fill="none" stroke="black" points="1244.5,-108 987.5,-108 987.5,-72 1244.5,-72 1244.5,-108"/>
<text text-anchor="middle" x="1116" y="-86.3" font-family="Times,serif" font-size="14.00">google_service_account.head&#45;chef</text>
</g>
<!-- [root] google_compute_instance.chef_Workstation (expand)&#45;&gt;[root] google_service_account.head&#45;chef (expand) -->
<g id="edge9" class="edge">
<title>[root] google_compute_instance.chef_Workstation (expand)&#45;&gt;[root] google_service_account.head&#45;chef (expand)</title>
<path fill="none" stroke="black" d="M1075.11,-215.93C1056.24,-208.02 1038.91,-196.56 1027,-180 1017.66,-167.01 1019.09,-157.91 1027,-144 1034.36,-131.04 1046.29,-120.92 1059.05,-113.16"/>
<polygon fill="black" stroke="black" points="1060.96,-116.1 1067.97,-108.15 1057.53,-109.99 1060.96,-116.1"/>
</g>
<!-- [root] var.boot_os -->
<g id="node11" class="node">
<title>[root] var.boot_os</title>
<polygon fill="none" stroke="black" points="1127.5,-180 1036.5,-180 1036.5,-144 1133.5,-144 1133.5,-174 1127.5,-180"/>
<polyline fill="none" stroke="black" points="1127.5,-180 1127.5,-174 "/>
<polyline fill="none" stroke="black" points="1133.5,-174 1127.5,-174 "/>
<text text-anchor="middle" x="1085" y="-158.3" font-family="Times,serif" font-size="14.00">var.boot_os</text>
</g>
<!-- [root] google_compute_instance.chef_Workstation (expand)&#45;&gt;[root] var.boot_os -->
<g id="edge10" class="edge">
<title>[root] google_compute_instance.chef_Workstation (expand)&#45;&gt;[root] var.boot_os</title>
<path fill="none" stroke="black" d="M1160.54,-215.88C1147.7,-206.89 1131.8,-195.76 1117.91,-186.03"/>
<polygon fill="black" stroke="black" points="1119.76,-183.06 1109.56,-180.19 1115.74,-188.79 1119.76,-183.06"/>
</g>
<!-- [root] var.tag -->
<g id="node17" class="node">
<title>[root] var.tag</title>
<polygon fill="none" stroke="black" points="1212,-180 1152,-180 1152,-144 1218,-144 1218,-174 1212,-180"/>
<polyline fill="none" stroke="black" points="1212,-180 1212,-174 "/>
<polyline fill="none" stroke="black" points="1218,-174 1212,-174 "/>
<text text-anchor="middle" x="1185" y="-158.3" font-family="Times,serif" font-size="14.00">var.tag</text>
</g>
<!-- [root] google_compute_instance.chef_Workstation (expand)&#45;&gt;[root] var.tag -->
<g id="edge11" class="edge">
<title>[root] google_compute_instance.chef_Workstation (expand)&#45;&gt;[root] var.tag</title>
<path fill="none" stroke="black" d="M1185,-215.7C1185,-207.98 1185,-198.71 1185,-190.11"/>
<polygon fill="black" stroke="black" points="1188.5,-190.1 1185,-180.1 1181.5,-190.1 1188.5,-190.1"/>
</g>
<!-- [root] provider[&quot;registry.terraform.io/hashicorp/google&quot;] -->
<g id="node9" class="node">
<title>[root] provider[&quot;registry.terraform.io/hashicorp/google&quot;]</title>
<polygon fill="none" stroke="black" points="1121,-36 777.47,-18 1121,0 1464.53,-18 1121,-36"/>
<text text-anchor="middle" x="1121" y="-14.3" font-family="Times,serif" font-size="14.00">provider[&quot;registry.terraform.io/hashicorp/google&quot;]</text>
</g>
<!-- [root] google_compute_network.network (expand)&#45;&gt;[root] provider[&quot;registry.terraform.io/hashicorp/google&quot;] -->
<g id="edge12" class="edge">
<title>[root] google_compute_network.network (expand)&#45;&gt;[root] provider[&quot;registry.terraform.io/hashicorp/google&quot;]</title>
<path fill="none" stroke="black" d="M1521.27,-71.97C1429.63,-59.84 1308.16,-43.77 1223.16,-32.52"/>
<polygon fill="black" stroke="black" points="1223.62,-29.05 1213.24,-31.21 1222.7,-35.99 1223.62,-29.05"/>
</g>
<!-- [root] var.prefix -->
<g id="node14" class="node">
<title>[root] var.prefix</title>
<polygon fill="none" stroke="black" points="1686,-36 1608,-36 1608,0 1692,0 1692,-30 1686,-36"/>
<polyline fill="none" stroke="black" points="1686,-36 1686,-30 "/>
<polyline fill="none" stroke="black" points="1692,-30 1686,-30 "/>
<text text-anchor="middle" x="1650" y="-14.3" font-family="Times,serif" font-size="14.00">var.prefix</text>
</g>
<!-- [root] google_compute_network.network (expand)&#45;&gt;[root] var.prefix -->
<g id="edge13" class="edge">
<title>[root] google_compute_network.network (expand)&#45;&gt;[root] var.prefix</title>
<path fill="none" stroke="black" d="M1650,-71.7C1650,-63.98 1650,-54.71 1650,-46.11"/>
<polygon fill="black" stroke="black" points="1653.5,-46.1 1650,-36.1 1646.5,-46.1 1653.5,-46.1"/>
</g>
<!-- [root] var.project -->
<g id="node15" class="node">
<title>[root] var.project</title>
<polygon fill="none" stroke="black" points="1578.5,-36 1491.5,-36 1491.5,0 1584.5,0 1584.5,-30 1578.5,-36"/>
<polyline fill="none" stroke="black" points="1578.5,-36 1578.5,-30 "/>
<polyline fill="none" stroke="black" points="1584.5,-30 1578.5,-30 "/>
<text text-anchor="middle" x="1538" y="-14.3" font-family="Times,serif" font-size="14.00">var.project</text>
</g>
<!-- [root] google_compute_network.network (expand)&#45;&gt;[root] var.project -->
<g id="edge14" class="edge">
<title>[root] google_compute_network.network (expand)&#45;&gt;[root] var.project</title>
<path fill="none" stroke="black" d="M1622.6,-71.88C1608.09,-62.81 1590.08,-51.55 1574.41,-41.76"/>
<polygon fill="black" stroke="black" points="1575.84,-38.52 1565.5,-36.19 1572.13,-44.46 1575.84,-38.52"/>
</g>
<!-- [root] google_compute_router.router (expand) -->
<g id="node5" class="node">
<title>[root] google_compute_router.router (expand)</title>
<polygon fill="none" stroke="black" points="1798,-180 1566,-180 1566,-144 1798,-144 1798,-180"/>
<text text-anchor="middle" x="1682" y="-158.3" font-family="Times,serif" font-size="14.00">google_compute_router.router</text>
</g>
<!-- [root] google_compute_router.router (expand)&#45;&gt;[root] google_compute_network.network (expand) -->
<g id="edge15" class="edge">
<title>[root] google_compute_router.router (expand)&#45;&gt;[root] google_compute_network.network (expand)</title>
<path fill="none" stroke="black" d="M1674.09,-143.7C1670.45,-135.73 1666.05,-126.1 1662.01,-117.26"/>
<polygon fill="black" stroke="black" points="1665.16,-115.74 1657.82,-108.1 1658.79,-118.65 1665.16,-115.74"/>
</g>
<!-- [root] google_compute_router.router (expand)&#45;&gt;[root] var.region -->
<g id="edge16" class="edge">
<title>[root] google_compute_router.router (expand)&#45;&gt;[root] var.region</title>
<path fill="none" stroke="black" d="M1568.51,-144C1497.41,-133.03 1411.5,-119.14 1361.47,-107.88"/>
<polygon fill="black" stroke="black" points="1362.19,-104.45 1351.65,-105.59 1360.6,-111.27 1362.19,-104.45"/>
</g>
<!-- [root] google_compute_router_nat.nat (expand) -->
<g id="node6" class="node">
<title>[root] google_compute_router_nat.nat (expand)</title>
<polygon fill="none" stroke="black" points="1640,-252 1398,-252 1398,-216 1640,-216 1640,-252"/>
<text text-anchor="middle" x="1519" y="-230.3" font-family="Times,serif" font-size="14.00">google_compute_router_nat.nat</text>
</g>
<!-- [root] google_compute_router_nat.nat (expand)&#45;&gt;[root] google_compute_router.router (expand) -->
<g id="edge17" class="edge">
<title>[root] google_compute_router_nat.nat (expand)&#45;&gt;[root] google_compute_router.router (expand)</title>
<path fill="none" stroke="black" d="M1558.87,-215.88C1581.16,-206.31 1609.12,-194.3 1632.76,-184.15"/>
<polygon fill="black" stroke="black" points="1634.45,-187.23 1642.26,-180.07 1631.69,-180.8 1634.45,-187.23"/>
</g>
<!-- [root] google_compute_router_nat.nat (expand)&#45;&gt;[root] google_compute_subnetwork.subnetwork (expand) -->
<g id="edge18" class="edge">
<title>[root] google_compute_router_nat.nat (expand)&#45;&gt;[root] google_compute_subnetwork.subnetwork (expand)</title>
<path fill="none" stroke="black" d="M1487.93,-215.88C1471.17,-206.64 1450.29,-195.13 1432.3,-185.21"/>
<polygon fill="black" stroke="black" points="1433.63,-181.95 1423.19,-180.19 1430.26,-188.08 1433.63,-181.95"/>
</g>
<!-- [root] google_compute_subnetwork.subnetwork (expand)&#45;&gt;[root] google_compute_network.network (expand) -->
<g id="edge19" class="edge">
<title>[root] google_compute_subnetwork.subnetwork (expand)&#45;&gt;[root] google_compute_network.network (expand)</title>
<path fill="none" stroke="black" d="M1454.78,-143.97C1491.62,-133.97 1538.33,-121.3 1576.82,-110.85"/>
<polygon fill="black" stroke="black" points="1578.2,-114.11 1586.93,-108.11 1576.37,-107.35 1578.2,-114.11"/>
</g>
<!-- [root] var.ipcidr_range -->
<g id="node12" class="node">
<title>[root] var.ipcidr_range</title>
<polygon fill="none" stroke="black" points="1496,-108 1370,-108 1370,-72 1502,-72 1502,-102 1496,-108"/>
<polyline fill="none" stroke="black" points="1496,-108 1496,-102 "/>
<polyline fill="none" stroke="black" points="1502,-102 1496,-102 "/>
<text text-anchor="middle" x="1436" y="-86.3" font-family="Times,serif" font-size="14.00">var.ipcidr_range</text>
</g>
<!-- [root] google_compute_subnetwork.subnetwork (expand)&#45;&gt;[root] var.ipcidr_range -->
<g id="edge20" class="edge">
<title>[root] google_compute_subnetwork.subnetwork (expand)&#45;&gt;[root] var.ipcidr_range</title>
<path fill="none" stroke="black" d="M1402.88,-143.7C1407.99,-135.56 1414.2,-125.69 1419.84,-116.7"/>
<polygon fill="black" stroke="black" points="1422.89,-118.43 1425.25,-108.1 1416.96,-114.71 1422.89,-118.43"/>
</g>
<!-- [root] google_compute_subnetwork.subnetwork (expand)&#45;&gt;[root] var.region -->
<g id="edge21" class="edge">
<title>[root] google_compute_subnetwork.subnetwork (expand)&#45;&gt;[root] var.region</title>
<path fill="none" stroke="black" d="M1370.99,-143.7C1360.28,-134.88 1347.11,-124.03 1335.5,-114.47"/>
<polygon fill="black" stroke="black" points="1337.71,-111.76 1327.77,-108.1 1333.26,-117.16 1337.71,-111.76"/>
</g>
<!-- [root] google_service_account.head&#45;chef (expand)&#45;&gt;[root] provider[&quot;registry.terraform.io/hashicorp/google&quot;] -->
<g id="edge22" class="edge">
<title>[root] google_service_account.head&#45;chef (expand)&#45;&gt;[root] provider[&quot;registry.terraform.io/hashicorp/google&quot;]</title>
<path fill="none" stroke="black" d="M1117.24,-71.7C1117.79,-63.98 1118.45,-54.71 1119.06,-46.11"/>
<polygon fill="black" stroke="black" points="1122.56,-46.33 1119.78,-36.1 1115.57,-45.83 1122.56,-46.33"/>
</g>
<!-- [root] google_service_account.head&#45;chef (expand)&#45;&gt;[root] var.project -->
<g id="edge23" class="edge">
<title>[root] google_service_account.head&#45;chef (expand)&#45;&gt;[root] var.project</title>
<path fill="none" stroke="black" d="M1241.56,-71.94C1326.42,-60.11 1430.62,-44.94 1474,-36 1476.46,-35.49 1478.97,-34.95 1481.5,-34.37"/>
<polygon fill="black" stroke="black" points="1482.38,-37.76 1491.31,-32.05 1480.77,-30.95 1482.38,-37.76"/>
</g>
<!-- [root] meta.count&#45;boundary (EachMode fixup) -->
<g id="node19" class="node">
<title>[root] meta.count&#45;boundary (EachMode fixup)</title>
<ellipse fill="none" stroke="black" cx="1810" cy="-306" rx="222.86" ry="18"/>
<text text-anchor="middle" x="1810" y="-302.3" font-family="Times,serif" font-size="14.00">[root] meta.count&#45;boundary (EachMode fixup)</text>
</g>
<!-- [root] meta.count&#45;boundary (EachMode fixup)&#45;&gt;[root] google_compute_firewall.iap&#45;tunnel (expand) -->
<g id="edge24" class="edge">
<title>[root] meta.count&#45;boundary (EachMode fixup)&#45;&gt;[root] google_compute_firewall.iap&#45;tunnel (expand)</title>
<path fill="none" stroke="black" d="M1810,-287.7C1810,-279.98 1810,-270.71 1810,-262.11"/>
<polygon fill="black" stroke="black" points="1813.5,-262.1 1810,-252.1 1806.5,-262.1 1813.5,-262.1"/>
</g>
<!-- [root] meta.count&#45;boundary (EachMode fixup)&#45;&gt;[root] google_compute_instance.chef_Workstation (expand) -->
<g id="edge25" class="edge">
<title>[root] meta.count&#45;boundary (EachMode fixup)&#45;&gt;[root] google_compute_instance.chef_Workstation (expand)</title>
<path fill="none" stroke="black" d="M1685.4,-291.04C1588.29,-280.17 1452.66,-264.98 1347.11,-253.16"/>
<polygon fill="black" stroke="black" points="1347.31,-249.66 1336.99,-252.02 1346.54,-256.61 1347.31,-249.66"/>
</g>
<!-- [root] meta.count&#45;boundary (EachMode fixup)&#45;&gt;[root] google_compute_router_nat.nat (expand) -->
<g id="edge26" class="edge">
<title>[root] meta.count&#45;boundary (EachMode fixup)&#45;&gt;[root] google_compute_router_nat.nat (expand)</title>
<path fill="none" stroke="black" d="M1742.51,-288.76C1699.89,-278.51 1644.61,-265.21 1599.68,-254.41"/>
<polygon fill="black" stroke="black" points="1600.22,-250.94 1589.68,-252 1598.58,-257.74 1600.22,-250.94"/>
</g>
<!-- [root] provider[&quot;registry.terraform.io/hashicorp/google&quot;] (close) -->
<g id="node20" class="node">
<title>[root] provider[&quot;registry.terraform.io/hashicorp/google&quot;] (close)</title>
<ellipse fill="none" stroke="black" cx="1264" cy="-306" rx="304.65" ry="18"/>
<text text-anchor="middle" x="1264" y="-302.3" font-family="Times,serif" font-size="14.00">[root] provider[&quot;registry.terraform.io/hashicorp/google&quot;] (close)</text>
</g>
<!-- [root] provider[&quot;registry.terraform.io/hashicorp/google&quot;] (close)&#45;&gt;[root] google_compute_firewall.iap&#45;tunnel (expand) -->
<g id="edge27" class="edge">
<title>[root] provider[&quot;registry.terraform.io/hashicorp/google&quot;] (close)&#45;&gt;[root] google_compute_firewall.iap&#45;tunnel (expand)</title>
<path fill="none" stroke="black" d="M1385.18,-289.46C1468.52,-278.78 1579.54,-264.55 1667.19,-253.31"/>
<polygon fill="black" stroke="black" points="1667.74,-256.77 1677.21,-252.02 1666.85,-249.82 1667.74,-256.77"/>
</g>
<!-- [root] provider[&quot;registry.terraform.io/hashicorp/google&quot;] (close)&#45;&gt;[root] google_compute_instance.chef_Workstation (expand) -->
<g id="edge28" class="edge">
<title>[root] provider[&quot;registry.terraform.io/hashicorp/google&quot;] (close)&#45;&gt;[root] google_compute_instance.chef_Workstation (expand)</title>
<path fill="none" stroke="black" d="M1244.47,-287.7C1234.62,-278.97 1222.51,-268.24 1211.8,-258.75"/>
<polygon fill="black" stroke="black" points="1214.11,-256.12 1204.3,-252.1 1209.47,-261.36 1214.11,-256.12"/>
</g>
<!-- [root] provider[&quot;registry.terraform.io/hashicorp/google&quot;] (close)&#45;&gt;[root] google_compute_router_nat.nat (expand) -->
<g id="edge29" class="edge">
<title>[root] provider[&quot;registry.terraform.io/hashicorp/google&quot;] (close)&#45;&gt;[root] google_compute_router_nat.nat (expand)</title>
<path fill="none" stroke="black" d="M1324.75,-288.32C1361.4,-278.26 1408.29,-265.39 1446.82,-254.81"/>
<polygon fill="black" stroke="black" points="1448.22,-258.06 1456.94,-252.04 1446.37,-251.31 1448.22,-258.06"/>
</g>
<!-- [root] provider[&quot;registry.terraform.io/hashicorp/template&quot;] (close) -->
<g id="node21" class="node">
<title>[root] provider[&quot;registry.terraform.io/hashicorp/template&quot;] (close)</title>
<ellipse fill="none" stroke="black" cx="626" cy="-306" rx="315.44" ry="18"/>
<text text-anchor="middle" x="626" y="-302.3" font-family="Times,serif" font-size="14.00">[root] provider[&quot;registry.terraform.io/hashicorp/template&quot;] (close)</text>
</g>
<!-- [root] provider[&quot;registry.terraform.io/hashicorp/template&quot;] (close)&#45;&gt;[root] data.template_file.chef_setup (expand) -->
<g id="edge30" class="edge">
<title>[root] provider[&quot;registry.terraform.io/hashicorp/template&quot;] (close)&#45;&gt;[root] data.template_file.chef_setup (expand)</title>
<path fill="none" stroke="black" d="M655.07,-287.87C698.59,-262.23 780.7,-213.85 828.94,-185.43"/>
<polygon fill="black" stroke="black" points="830.99,-188.28 837.83,-180.19 827.43,-182.25 830.99,-188.28"/>
</g>
<!-- [root] root -->
<g id="node22" class="node">
<title>[root] root</title>
<ellipse fill="none" stroke="black" cx="1264" cy="-378" rx="58.49" ry="18"/>
<text text-anchor="middle" x="1264" y="-374.3" font-family="Times,serif" font-size="14.00">[root] root</text>
</g>
<!-- [root] root&#45;&gt;[root] meta.count&#45;boundary (EachMode fixup) -->
<g id="edge31" class="edge">
<title>[root] root&#45;&gt;[root] meta.count&#45;boundary (EachMode fixup)</title>
<path fill="none" stroke="black" d="M1316.85,-370.22C1401.62,-359.36 1570.27,-337.74 1686.55,-322.83"/>
<polygon fill="black" stroke="black" points="1687.11,-326.28 1696.58,-321.54 1686.22,-319.34 1687.11,-326.28"/>
</g>
<!-- [root] root&#45;&gt;[root] provider[&quot;registry.terraform.io/hashicorp/google&quot;] (close) -->
<g id="edge32" class="edge">
<title>[root] root&#45;&gt;[root] provider[&quot;registry.terraform.io/hashicorp/google&quot;] (close)</title>
<path fill="none" stroke="black" d="M1264,-359.7C1264,-351.98 1264,-342.71 1264,-334.11"/>
<polygon fill="black" stroke="black" points="1267.5,-334.1 1264,-324.1 1260.5,-334.1 1267.5,-334.1"/>
</g>
<!-- [root] root&#45;&gt;[root] provider[&quot;registry.terraform.io/hashicorp/template&quot;] (close) -->
<g id="edge33" class="edge">
<title>[root] root&#45;&gt;[root] provider[&quot;registry.terraform.io/hashicorp/template&quot;] (close)</title>
<path fill="none" stroke="black" d="M1209.88,-371.06C1114.7,-360.62 914.25,-338.63 774.94,-323.34"/>
<polygon fill="black" stroke="black" points="774.92,-319.82 764.6,-322.21 774.16,-326.78 774.92,-319.82"/>
</g>
</g>
</svg>
